<svg width="63" height="63" viewBox="0 0 63 63" fill="none" xmlns="http://www.w3.org/2000/svg">
<rect width="63" height="63" rx="10" fill="url(#paint0_linear_593_17131)"/>
<g clip-path="url(#clip0_593_17131)">
<path d="M49.4725 41.5096L49.469 42.3203C49.4672 42.8785 49.2441 43.4132 48.8487 43.8073C48.4533 44.2013 47.9179 44.4226 47.3596 44.4226H17.4269C17.0469 44.4229 16.6739 44.3206 16.3473 44.1264C16.0207 43.9322 15.7526 43.6534 15.5714 43.3194L14.7832 41.871C14.6034 41.5392 14.5155 41.1653 14.5286 40.7882C14.5286 40.7579 14.5286 40.727 14.5336 40.6961L14.7733 37.6979L15.0011 34.8327C15.009 34.7352 15.0235 34.6384 15.0447 34.543C15.0829 34.3682 15.1434 34.199 15.2247 34.0396L17.4656 29.6436C17.6424 29.2975 17.9113 29.0067 18.2426 28.8034C18.5739 28.6001 18.9549 28.4921 19.3436 28.4912H33.2423C33.7533 28.4911 34.247 28.6765 34.6317 29.0129L40.8782 34.4741L41.1707 34.5444L47.276 35.9823C47.6816 36.0776 48.0499 36.2908 48.3344 36.5951C48.619 36.8995 48.807 37.2812 48.8749 37.6923C48.8764 37.6983 48.8776 37.7044 48.8784 37.7106L49.3593 40.7882L49.4725 41.5096Z" fill="#EB304A"/>
<path d="M49.3602 40.7882L48.8793 37.7106C48.8784 37.7045 48.8773 37.6984 48.8757 37.6924C48.8082 37.281 48.6202 36.899 48.3356 36.5944C48.0511 36.2898 47.6826 36.0763 47.2768 35.981L41.1716 34.5431L40.8791 34.4728L34.6325 29.0116C34.2479 28.6751 33.7542 28.4897 33.2432 28.4899H31.1338C31.6448 28.4897 32.1385 28.6751 32.5232 29.0116L38.7697 34.4728L39.0622 34.5431L45.1675 35.981C45.5731 36.0764 45.9414 36.2899 46.2258 36.5945C46.5103 36.8991 46.6981 37.2811 46.7657 37.6924C46.7672 37.6984 46.7683 37.7045 46.7692 37.7106L47.2501 40.7882L47.3626 41.5096L47.3598 42.3203C47.3579 42.8786 47.1349 43.4133 46.7395 43.8073C46.3441 44.2014 45.8087 44.4227 45.2504 44.4227H47.3598C47.918 44.4227 48.4535 44.2014 48.8489 43.8073C49.2443 43.4133 49.4673 42.8786 49.4692 42.3203L49.4727 41.5082L49.3602 40.7882Z" fill="#E4222E"/>
<path d="M41.1708 34.543H15.042C15.0802 34.3682 15.1407 34.199 15.222 34.0396L17.4629 29.6436C17.6399 29.297 17.9092 29.006 18.2411 28.8027C18.573 28.5994 18.9545 28.4916 19.3437 28.4912H33.2424C33.7534 28.4911 34.2471 28.6765 34.6318 29.0129L40.8783 34.4741L41.1708 34.543Z" fill="#52BBE9"/>
<path d="M40.8781 34.4741L34.6316 29.0129C34.2469 28.6765 33.7532 28.4911 33.2422 28.4912H31.1328C31.6438 28.4911 32.1375 28.6765 32.5222 29.0129L38.7687 34.4741L39.0612 34.5444H41.1706L40.8781 34.4741Z" fill="#1CABE1"/>
<path d="M41.8052 48.4727C40.8685 48.4728 39.9607 48.1482 39.2365 47.5541C38.5123 46.9599 38.0166 46.133 37.8337 45.2143C37.6509 44.2956 37.7923 43.342 38.2338 42.5158C38.6753 41.6897 39.3896 41.0422 40.255 40.6837C41.1204 40.3252 42.0833 40.2779 42.9797 40.5498C43.8761 40.8217 44.6505 41.3961 45.1708 42.1749C45.6912 42.9538 45.9254 43.889 45.8335 44.8212C45.7416 45.7534 45.3293 46.6249 44.6669 47.2872C44.2919 47.6642 43.846 47.963 43.3548 48.1665C42.8636 48.37 42.3369 48.474 41.8052 48.4727Z" fill="#787681"/>
<path d="M44.6663 41.5616C44.2914 41.1846 43.8454 40.8857 43.3542 40.6822C42.863 40.4788 42.3363 40.3747 41.8046 40.3761C41.5901 40.3763 41.3759 40.3932 41.1641 40.4267C42.1147 40.579 42.9799 41.0651 43.6045 41.7977C44.2291 42.5304 44.5722 43.4616 44.5722 44.4244C44.5722 45.3871 44.2291 46.3183 43.6045 47.051C42.9799 47.7836 42.1147 48.2697 41.1641 48.422C41.3759 48.4555 41.5901 48.4724 41.8046 48.4726C42.6053 48.4726 43.3881 48.2352 44.0538 47.7903C44.7196 47.3455 45.2385 46.7131 45.5448 45.9733C45.8511 45.2335 45.9312 44.4195 45.7748 43.6342C45.6185 42.8489 45.2327 42.1276 44.6663 41.5616Z" fill="#57565C"/>
<path d="M41.8052 46.0082C41.4393 46.0079 41.0848 45.8807 40.8021 45.6483C40.5194 45.4159 40.326 45.0927 40.2548 44.7337C40.1837 44.3748 40.2391 44.0022 40.4118 43.6796C40.5845 43.357 40.8637 43.1042 41.2019 42.9643C41.54 42.8244 41.9162 42.806 42.2664 42.9124C42.6166 43.0187 42.919 43.2432 43.1223 43.5475C43.3255 43.8518 43.4169 44.2172 43.381 44.5814C43.3451 44.9456 43.1841 45.2861 42.9253 45.5448C42.7785 45.6923 42.6039 45.8091 42.4117 45.8887C42.2194 45.9682 42.0133 46.0088 41.8052 46.0082Z" fill="#E1E1E3"/>
<path d="M42.9252 43.3046C42.7143 43.0937 42.448 42.9467 42.1571 42.8808C41.8661 42.8148 41.5625 42.8326 41.2812 42.932C41.5906 43.0404 41.8586 43.2422 42.0482 43.5096C42.2379 43.7769 42.3397 44.0966 42.3397 44.4244C42.3397 44.7521 42.2379 45.0718 42.0482 45.3392C41.8586 45.6065 41.5906 45.8084 41.2812 45.9168C41.6195 46.0348 41.9878 46.0346 42.326 45.9163C42.6642 45.7979 42.9522 45.5683 43.143 45.2651C43.3339 44.9619 43.4162 44.6029 43.3767 44.2468C43.3371 43.8907 43.1779 43.5586 42.9252 43.3046Z" fill="#C8C5CC"/>
<path d="M22.7966 48.4727C21.8603 48.4725 20.953 48.1478 20.2293 47.5537C19.5056 46.9596 19.0103 46.133 18.8277 45.2147C18.6451 44.2963 18.7866 43.3431 19.228 42.5174C19.6695 41.6917 20.3836 41.0445 21.2486 40.6863C22.1137 40.328 23.0762 40.2808 23.9722 40.5526C24.8681 40.8244 25.6422 41.3985 26.1623 42.177C26.6825 42.9556 26.9167 43.8904 26.8249 44.8222C26.7331 45.754 26.3211 46.6251 25.6591 47.2872C25.2839 47.6641 24.8378 47.963 24.3465 48.1665C23.8552 48.3699 23.3284 48.474 22.7966 48.4727Z" fill="#787681"/>
<path d="M49.3602 40.7882H48.0312C47.7515 40.7882 47.4833 40.6771 47.2855 40.4793C47.0877 40.2815 46.9766 40.0132 46.9766 39.7335V38.7491C46.9766 38.4694 47.0877 38.2012 47.2855 38.0034C47.4833 37.8056 47.7515 37.6945 48.0312 37.6945H48.8602L48.8813 37.7127L49.3602 40.7882Z" fill="#F8BE32"/>
<path d="M48.8788 37.7107L48.8577 37.6924H48.0308C47.9621 37.6924 47.8935 37.6992 47.8262 37.7128L48.3071 40.7882H49.3618L48.8788 37.7107Z" fill="#FED030"/>
<path d="M16.6243 38.7485V39.7329C16.6243 40.0126 16.5132 40.2808 16.3154 40.4786C16.1176 40.6764 15.8494 40.7875 15.5696 40.7875H14.5283C14.5283 40.7573 14.5283 40.7264 14.5332 40.6954L14.773 37.698L15.5711 37.6924C15.7096 37.6926 15.8467 37.72 15.9746 37.7732C16.1024 37.8264 16.2186 37.9042 16.3164 38.0023C16.4142 38.1004 16.4918 38.2167 16.5446 38.3448C16.5974 38.4728 16.6245 38.61 16.6243 38.7485Z" fill="#F8BE32"/>
<path d="M22.7964 46.0082C22.4299 46.0086 22.0746 45.882 21.7911 45.6498C21.5076 45.4176 21.3134 45.0943 21.2416 44.735C21.1698 44.3756 21.2249 44.0025 21.3974 43.6792C21.57 43.3559 21.8493 43.1025 22.1878 42.9621C22.5263 42.8217 22.903 42.8031 23.2537 42.9094C23.6044 43.0157 23.9073 43.2403 24.1109 43.545C24.3145 43.8497 24.4061 44.2155 24.3702 44.5802C24.3342 44.9449 24.1728 45.2858 23.9136 45.5448C23.7671 45.6918 23.5929 45.8084 23.4012 45.8879C23.2095 45.9674 23.0039 46.0083 22.7964 46.0082Z" fill="#E1E1E3"/>
<path d="M25.682 41.5616C25.307 41.1846 24.861 40.8857 24.3698 40.6822C23.8786 40.4788 23.3519 40.3747 22.8202 40.3761C22.6057 40.3763 22.3916 40.3932 22.1797 40.4267C23.1303 40.579 23.9956 41.0651 24.6202 41.7977C25.2448 42.5304 25.5878 43.4616 25.5878 44.4244C25.5878 45.3871 25.2448 46.3183 24.6202 47.051C23.9956 47.7836 23.1303 48.2697 22.1797 48.422C22.3916 48.4555 22.6057 48.4724 22.8202 48.4726C23.621 48.4726 24.4037 48.2352 25.0695 47.7903C25.7352 47.3455 26.2541 46.7131 26.5604 45.9733C26.8668 45.2335 26.9468 44.4195 26.7904 43.6342C26.6341 42.8489 26.2483 42.1276 25.682 41.5616Z" fill="#57565C"/>
<path d="M23.9408 43.3046C23.7299 43.0937 23.4636 42.9467 23.1727 42.8808C22.8818 42.8148 22.5781 42.8326 22.2969 42.932C22.6062 43.0404 22.8742 43.2422 23.0639 43.5096C23.2535 43.7769 23.3553 44.0966 23.3553 44.4244C23.3553 44.7521 23.2535 45.0718 23.0639 45.3392C22.8742 45.6065 22.6062 45.8084 22.2969 45.9168C22.6352 46.0348 23.0035 46.0346 23.3416 45.9163C23.6798 45.7979 23.9678 45.5683 24.1587 45.2651C24.3495 44.9619 24.4319 44.6029 24.3923 44.2468C24.3527 43.8907 24.1935 43.5586 23.9408 43.3046Z" fill="#C8C5CC"/>
<path d="M26.8865 29.5059C25.6624 29.5054 24.4762 29.0804 23.5303 28.3034C22.5843 27.5263 21.9371 26.4453 21.6988 25.2445C21.4606 24.0437 21.6461 22.7975 22.2238 21.7182C22.8014 20.6389 23.7355 19.7932 24.8667 19.3254C25.998 18.8576 27.2565 18.7965 28.4277 19.1526C29.599 19.5087 30.6105 20.2599 31.29 21.2783C31.9694 22.2966 32.2747 23.519 32.1538 24.7372C32.033 25.9554 31.4934 27.094 30.6272 27.959C30.1368 28.4512 29.5538 28.8414 28.9117 29.1069C28.2697 29.3724 27.5813 29.508 26.8865 29.5059Z" fill="#FED947"/>
<path d="M30.6273 20.4735C30.1371 19.9812 29.554 19.591 28.9119 19.3255C28.2699 19.06 27.5815 18.9244 26.8867 18.9267C26.5923 18.9259 26.2983 18.9494 26.0078 18.997C27.2409 19.2052 28.3604 19.8434 29.1678 20.7984C29.9751 21.7535 30.418 22.9636 30.418 24.2142C30.418 25.4647 29.9751 26.6749 29.1678 27.6299C28.3604 28.5849 27.2409 29.2232 26.0078 29.4314C26.2983 29.4801 26.5922 29.5048 26.8867 29.5052C27.9331 29.505 28.956 29.1946 29.826 28.6132C30.696 28.0318 31.3741 27.2054 31.7744 26.2386C32.1748 25.2718 32.2795 24.2081 32.0754 23.1818C31.8712 22.1555 31.3673 21.2128 30.6273 20.4728V20.4735Z" fill="#FECC30"/>
<path d="M49.4727 49H14.5273C14.3875 49 14.2534 48.9444 14.1545 48.8455C14.0556 48.7466 14 48.6125 14 48.4727C14 48.3328 14.0556 48.1987 14.1545 48.0998C14.2534 48.0009 14.3875 47.9453 14.5273 47.9453H49.4727C49.6125 47.9453 49.7467 48.0009 49.8455 48.0998C49.9444 48.1987 50 48.3328 50 48.4727C50 48.6125 49.9444 48.7466 49.8455 48.8455C49.7467 48.9444 49.6125 49 49.4727 49Z" fill="#8B8893"/>
<path d="M26.3047 24.1125H25.0039C24.8947 24.1007 24.7846 24.1233 24.6889 24.1773C24.5933 24.2312 24.5169 24.3136 24.4704 24.4131C24.4239 24.5126 24.4096 24.6241 24.4297 24.7321C24.4497 24.8401 24.503 24.9391 24.582 25.0153L27.5063 27.8566C27.556 27.9049 27.6147 27.9429 27.6791 27.9685C27.7435 27.9941 27.8122 28.0068 27.8815 28.0058C27.9508 28.0048 28.0192 27.9902 28.0828 27.9628C28.1464 27.9354 28.2041 27.8957 28.2523 27.846C28.3006 27.7964 28.3387 27.7377 28.3643 27.6733C28.3899 27.6089 28.4026 27.5401 28.4016 27.4709C28.4006 27.4016 28.386 27.3332 28.3586 27.2696C28.3312 27.2059 28.2915 27.1483 28.2418 27.1L26.252 25.1671H26.3047C26.7899 25.1661 27.2607 25.0016 27.641 24.7003C28.0214 24.3991 28.2893 23.9785 28.4014 23.5064H28.8359C28.9758 23.5064 29.1099 23.4508 29.2088 23.3519C29.3077 23.253 29.3633 23.1189 29.3633 22.979C29.3633 22.8392 29.3077 22.705 29.2088 22.6061C29.1099 22.5072 28.9758 22.4517 28.8359 22.4517H28.3909C28.3395 22.2573 28.2612 22.071 28.1581 21.8983H28.8359C28.9758 21.8983 29.1099 21.8428 29.2088 21.7439C29.3077 21.645 29.3633 21.5108 29.3633 21.371C29.3633 21.2311 29.3077 21.097 29.2088 20.9981C29.1099 20.8992 28.9758 20.8436 28.8359 20.8436H24.9758C24.8359 20.8436 24.7018 20.8992 24.6029 20.9981C24.504 21.097 24.4484 21.2311 24.4484 21.371C24.4484 21.5108 24.504 21.645 24.6029 21.7439C24.7018 21.8428 24.8359 21.8983 24.9758 21.8983H26.3047C26.4979 21.8987 26.6876 21.9501 26.8547 22.0472C27.0217 22.1444 27.1601 22.2839 27.256 22.4517H24.9758C24.8359 22.4517 24.7018 22.5072 24.6029 22.6061C24.504 22.705 24.4484 22.8392 24.4484 22.979C24.4484 23.1189 24.504 23.253 24.6029 23.3519C24.7018 23.4508 24.8359 23.5064 24.9758 23.5064H27.2891C27.1974 23.6888 27.0567 23.842 26.8829 23.9491C26.709 24.0561 26.5088 24.1127 26.3047 24.1125ZM41.8037 42.2531C41.3157 42.2535 40.843 42.423 40.4661 42.7328C40.0891 43.0426 39.8312 43.4735 39.7363 43.9521C39.6413 44.4307 39.7153 44.9274 39.9455 45.3576C40.1757 45.7878 40.5479 46.1249 40.9987 46.3115C41.4496 46.4981 41.9512 46.5226 42.4181 46.3809C42.8849 46.2391 43.2883 45.9399 43.5593 45.5342C43.8304 45.1285 43.9524 44.6414 43.9046 44.1558C43.8567 43.6702 43.6421 43.2162 43.2971 42.8711C43.1015 42.6746 42.8688 42.5189 42.6126 42.4129C42.3564 42.307 42.0816 42.2529 41.8044 42.2538L41.8037 42.2531ZM42.5511 45.1113C42.3785 45.2837 42.1514 45.3909 41.9086 45.4147C41.6659 45.4385 41.4223 45.3774 41.2195 45.2418C41.0167 45.1062 40.8672 44.9044 40.7964 44.671C40.7257 44.4375 40.738 44.1867 40.8314 43.9613C40.9248 43.736 41.0934 43.5499 41.3086 43.4349C41.5237 43.3199 41.7721 43.283 42.0113 43.3306C42.2506 43.3781 42.466 43.5072 42.6209 43.6957C42.7757 43.8842 42.8604 44.1206 42.8605 44.3646C42.861 44.5034 42.834 44.6409 42.781 44.7692C42.7281 44.8975 42.6501 45.014 42.5518 45.112L42.5511 45.1113ZM49.472 47.8851H44.7266C44.8348 47.7951 44.9394 47.7 45.0402 47.5996C45.7716 46.8718 46.2334 45.9165 46.3494 44.8912H47.3577C48.0554 44.8907 48.7246 44.6144 49.2195 44.1226C49.7145 43.6309 49.995 42.9634 50 42.2657L50.0035 41.4536C50.0035 41.4256 50.0014 41.3976 49.9972 41.37L49.4045 37.5773C49.4026 37.5626 49.4001 37.5481 49.3967 37.5337C49.3107 37.0217 49.075 36.5467 48.7194 36.1684C48.3638 35.7902 47.9041 35.5256 47.3984 35.4082L41.2925 33.9689H41.2827H41.2756L41.1266 33.9337L34.9784 28.5548C34.4978 28.1345 33.8809 27.9029 33.2424 27.903H31.3341C32.049 27.0554 32.5068 26.0212 32.6537 24.9222C32.8005 23.8231 32.6302 22.705 32.1629 21.6995C31.6955 20.694 30.9506 19.8429 30.0158 19.2466C29.0811 18.6502 27.9953 18.3334 26.8865 18.3334C25.7777 18.3334 24.692 18.6502 23.7572 19.2466C22.8224 19.8429 22.0775 20.694 21.6102 21.6995C21.1429 22.705 20.9726 23.8231 21.1194 24.9222C21.2662 26.0212 21.724 27.0554 22.4389 27.903H19.3438C18.8569 27.9021 18.3793 28.0362 17.9641 28.2904C17.5489 28.5446 17.2123 28.909 16.9918 29.343L14.7516 33.741C14.5936 34.0493 14.498 34.3857 14.4704 34.731L14.2468 37.5815V37.6012L14.0077 40.5951C14.008 40.5972 14.008 40.5993 14.0077 40.6014V40.6092C14.0077 40.645 14.0028 40.6795 14.0021 40.7097V40.7252C13.989 41.1908 14.0989 41.6516 14.3206 42.0611L15.1081 43.511C15.3348 43.9285 15.6701 44.277 16.0785 44.5197C16.487 44.7624 16.9533 44.8903 17.4284 44.8898H18.2525C18.368 45.9159 18.8298 46.872 19.5617 47.6003C19.6625 47.7007 19.767 47.7958 19.8753 47.8858H14.5273C14.3875 47.8858 14.2534 47.9414 14.1545 48.0403C14.0556 48.1392 14 48.2733 14 48.4132C14 48.553 14.0556 48.6872 14.1545 48.786C14.2534 48.8849 14.3875 48.9405 14.5273 48.9405H49.4727C49.6125 48.9405 49.7467 48.8849 49.8455 48.786C49.9444 48.6872 50 48.553 50 48.4132C50 48.2733 49.9444 48.1392 49.8455 48.0403C49.7467 47.9414 49.6125 47.8858 49.4727 47.8858L49.472 47.8851ZM48.7435 40.2014H48.0312C47.8911 40.201 47.7569 40.1452 47.6578 40.0461C47.5587 39.947 47.5029 39.8127 47.5025 39.6726V38.6882C47.5027 38.5481 47.5585 38.4137 47.6576 38.3146C47.7567 38.2154 47.8911 38.1597 48.0312 38.1595H48.4271L48.7435 40.2014ZM33.2424 28.9591C33.6257 28.9592 33.996 29.0984 34.2845 29.3507L39.5523 33.9562H27.268L26.8552 29.9723H26.8862C28.0589 29.9762 29.205 29.6227 30.1719 28.9591H33.2424ZM22.1232 24.1553C22.1231 23.053 22.5052 21.9848 23.2044 21.1326C23.9037 20.2805 24.8768 19.6972 25.9579 19.4821C27.039 19.267 28.1613 19.4334 29.1334 19.953C30.1056 20.4726 30.8675 21.3133 31.2893 22.3317C31.7111 23.3501 31.7668 24.4832 31.4467 25.5381C31.1267 26.5929 30.4508 27.5041 29.5342 28.1165C28.6176 28.7288 27.5171 29.0044 26.4201 28.8962C25.3231 28.7881 24.2976 28.3029 23.5182 27.5233C23.0744 27.0821 22.7226 26.5573 22.4831 25.9791C22.2437 25.401 22.1213 24.7811 22.1232 24.1553ZM17.9319 29.8239C18.0642 29.5633 18.2663 29.3445 18.5155 29.1919C18.7648 29.0392 19.0515 28.9586 19.3438 28.9591H23.6026C24.2585 29.4097 25.0006 29.7195 25.7823 29.8689L26.2041 33.9562H15.8281L17.9319 29.8239ZM15.0969 40.2014L15.2586 38.1623H15.568C15.7082 38.1623 15.8427 38.218 15.9419 38.3172C16.041 38.4163 16.0967 38.5508 16.0967 38.691V39.6754C16.0965 39.8156 16.0408 39.95 15.9416 40.0491C15.8425 40.1482 15.7081 40.204 15.568 40.2042L15.0969 40.2014ZM17.427 43.8372C17.1419 43.8375 16.8621 43.7608 16.617 43.6151C16.3719 43.4694 16.1708 43.2602 16.0348 43.0096L15.2466 41.5626C15.1943 41.4657 15.1521 41.3637 15.1208 41.2582H15.568C15.9878 41.2576 16.3902 41.0906 16.687 40.7938C16.9838 40.4969 17.1508 40.0945 17.1514 39.6747V38.6903C17.1508 38.2701 16.9835 37.8672 16.686 37.5703C16.3886 37.2734 15.9854 37.1067 15.5652 37.1069H15.3423L15.5082 35.0109H41.1097L47.1566 36.4347C47.5506 36.5271 47.8941 36.7672 48.1163 37.1055H48.0312C47.6114 37.1059 47.2089 37.2728 46.912 37.5697C46.6151 37.8666 46.4482 38.2691 46.4478 38.6889V39.6733C46.4486 40.093 46.6156 40.4952 46.9125 40.7919C47.2093 41.0886 47.6116 41.2555 48.0312 41.2561H48.9102L48.9453 41.4923V42.2657C48.9423 42.6844 48.7742 43.085 48.4774 43.3804C48.1806 43.6757 47.7792 43.8419 47.3605 43.8428H46.3487C46.2198 42.7279 45.6857 41.6993 44.8478 40.9526C44.0099 40.206 42.9267 39.7934 41.8044 39.7934C40.6821 39.7934 39.5989 40.206 38.761 40.9526C37.9231 41.6993 37.3889 42.7279 37.2601 43.8428H27.3411C27.2123 42.7279 26.6781 41.6993 25.8402 40.9526C25.0023 40.206 23.9191 39.7934 22.7968 39.7934C21.6745 39.7934 20.5913 40.206 19.7534 40.9526C18.9155 41.6993 18.3813 42.7279 18.2525 43.8428L17.427 43.8372ZM22.7968 47.8858C22.1007 47.8858 21.4202 47.6794 20.8413 47.2928C20.2625 46.9061 19.8112 46.3565 19.5446 45.7135C19.2781 45.0704 19.2081 44.3628 19.3436 43.68C19.4791 42.9972 19.814 42.3699 20.3059 41.8774C20.7978 41.3848 21.4247 41.0492 22.1074 40.9129C22.79 40.7766 23.4978 40.8457 24.1411 41.1115C24.7845 41.3773 25.3346 41.8279 25.722 42.4063C26.1093 42.9847 26.3165 43.6649 26.3173 44.361V44.3681C26.316 45.3009 25.9446 46.1951 25.2845 46.8543C24.6244 47.5135 23.7297 47.8837 22.7968 47.8837V47.8858ZM25.7183 47.8858C25.8266 47.7958 25.9311 47.7007 26.0319 47.6003C26.7633 46.8725 27.2251 45.9173 27.3411 44.8919H37.2601C37.3761 45.9173 37.8378 46.8725 38.5693 47.6003C38.6701 47.7007 38.7746 47.7958 38.8829 47.8858H25.7183ZM41.8044 47.8858C40.8716 47.8854 39.9771 47.5151 39.3171 46.856C38.6571 46.1969 38.2855 45.3029 38.2838 44.3702C38.2838 44.3702 38.2838 44.3667 38.2838 44.3653C38.2838 44.3639 38.2838 44.3653 38.2838 44.361C38.2848 43.665 38.4921 42.9848 38.8795 42.4065C39.267 41.8282 39.8171 41.3777 40.4605 41.112C41.1039 40.8463 41.8116 40.7773 42.4942 40.9137C43.1768 41.0501 43.8036 41.3858 44.2955 41.8783C44.7874 42.3709 45.1222 42.9982 45.2576 43.681C45.3931 44.3637 45.3231 45.0714 45.0565 45.7144C44.7899 46.3574 44.3386 46.9069 43.7598 47.2935C43.1809 47.6802 42.5005 47.8865 41.8044 47.8865V47.8858ZM23.9935 37.1104H25.5404C25.6803 37.1104 25.8144 37.0549 25.9133 36.956C26.0122 36.8571 26.0677 36.7229 26.0677 36.5831C26.0677 36.4432 26.0122 36.3091 25.9133 36.2102C25.8144 36.1113 25.6803 36.0557 25.5404 36.0557H23.9935C23.8537 36.0557 23.7195 36.1113 23.6206 36.2102C23.5217 36.3091 23.4662 36.4432 23.4662 36.5831C23.4662 36.7229 23.5217 36.8571 23.6206 36.956C23.7195 37.0549 23.8537 37.1104 23.9935 37.1104ZM29.2733 37.1104H30.8202C30.96 37.1104 31.0941 37.0549 31.193 36.956C31.2919 36.8571 31.3475 36.7229 31.3475 36.5831C31.3475 36.4432 31.2919 36.3091 31.193 36.2102C31.0941 36.1113 30.96 36.0557 30.8202 36.0557H29.2733C29.1334 36.0557 28.9993 36.1113 28.9004 36.2102C28.8015 36.3091 28.7459 36.4432 28.7459 36.5831C28.7459 36.7229 28.8015 36.8571 28.9004 36.956C28.9993 37.0549 29.1334 37.1104 29.2733 37.1104ZM22.7968 42.2538C22.3088 42.254 21.836 42.4234 21.459 42.7331C21.0819 43.0428 20.8238 43.4736 20.7288 43.9523C20.6337 44.4309 20.7076 44.9276 20.9377 45.3579C21.1678 45.7882 21.54 46.1254 21.9908 46.3121C22.4417 46.4988 22.9433 46.5233 23.4102 46.3817C23.8772 46.24 24.2805 45.9408 24.5516 45.5351C24.8227 45.1293 24.9448 44.6422 24.897 44.1566C24.8492 43.6709 24.6345 43.2169 24.2895 42.8718C24.094 42.6752 23.8613 42.5193 23.6051 42.4133C23.3489 42.3072 23.0741 42.253 22.7968 42.2538ZM23.5442 45.112C23.3716 45.2844 23.1446 45.3916 22.9018 45.4154C22.659 45.4392 22.4154 45.3781 22.2126 45.2425C22.0098 45.1069 21.8603 44.9052 21.7896 44.6717C21.7188 44.4382 21.7312 44.1874 21.8245 43.9621C21.9179 43.7367 22.0865 43.5506 22.3017 43.4356C22.5168 43.3206 22.7652 43.2837 23.0045 43.3313C23.2438 43.3788 23.4592 43.5079 23.614 43.6964C23.7688 43.8849 23.8535 44.1213 23.8536 44.3653C23.8539 44.504 23.8267 44.6414 23.7736 44.7696C23.7205 44.8977 23.6425 45.0141 23.5442 45.112Z" fill="#3C3B41"/>
</g>
<defs>
<linearGradient id="paint0_linear_593_17131" x1="31.5" y1="0" x2="31.5" y2="63" gradientUnits="userSpaceOnUse">
<stop stop-color="#ACAAC3" stop-opacity="0.4"/>
<stop offset="1" stop-color="#F0F4FD" stop-opacity="0.2"/>
</linearGradient>
<clipPath id="clip0_593_17131">
<rect width="36" height="36" fill="white" transform="translate(14 13)"/>
</clipPath>
</defs>
</svg>
