<svg width="63" height="63" viewBox="0 0 63 63" fill="none" xmlns="http://www.w3.org/2000/svg">
<rect width="63" height="63" rx="10" fill="url(#paint0_linear_593_17130)"/>
<path d="M32.0339 24.2247V33.579C32.0339 33.8069 31.9433 34.0255 31.7821 34.1866C31.621 34.3478 31.4025 34.4383 31.1746 34.4384H20.9893C20.7614 34.4383 20.5428 34.3478 20.3817 34.1866C20.2205 34.0255 20.13 33.8069 20.1299 33.579V24.2247C20.1299 24.1119 20.1521 24.0001 20.1952 23.8958C20.2384 23.7915 20.3017 23.6968 20.3815 23.617C20.4613 23.5372 20.5561 23.4739 20.6604 23.4307C20.7646 23.3875 20.8764 23.3653 20.9893 23.3654H31.1746C31.2874 23.3653 31.3992 23.3875 31.5035 23.4307C31.6078 23.4739 31.7025 23.5372 31.7823 23.617C31.8621 23.6968 31.9254 23.7915 31.9686 23.8958C32.0118 24.0001 32.034 24.1119 32.0339 24.2247Z" fill="#FF6666"/>
<path d="M33.2109 34.4386H23.7326C23.0837 34.4386 22.5576 34.9647 22.5576 35.6136C22.5576 36.2625 23.0837 36.7886 23.7326 36.7886H33.2109C33.8598 36.7886 34.3859 36.2625 34.3859 35.6136C34.3859 34.9647 33.8598 34.4386 33.2109 34.4386Z" fill="#4A4F60"/>
<path d="M33.2109 34.4386H30.6328C30.9444 34.4386 31.2433 34.5624 31.4637 34.7827C31.684 35.0031 31.8078 35.302 31.8078 35.6136C31.8078 35.9252 31.684 36.2241 31.4637 36.4444C31.2433 36.6648 30.9444 36.7886 30.6328 36.7886H33.2109C33.5226 36.7886 33.8214 36.6648 34.0418 36.4444C34.2621 36.2241 34.3859 35.9252 34.3859 35.6136C34.3859 35.302 34.2621 35.0031 34.0418 34.7827C33.8214 34.5624 33.5226 34.4386 33.2109 34.4386Z" fill="#3B3F4D"/>
<path d="M29.2679 47.8202C29.2679 48.9328 28.8259 49.9998 28.0392 50.7865C27.2525 51.5732 26.1855 52.0152 25.0729 52.0152C23.9603 52.0152 22.8933 51.5732 22.1066 50.7865C21.3199 49.9998 20.8779 48.9328 20.8779 47.8202V46.563L29.2679 46.3038V47.8202Z" fill="#4A4F60"/>
<path d="M27.9792 46.3437V47.8202C27.9791 48.8211 27.6212 49.789 26.9702 50.5492C26.3191 51.3094 25.4177 51.8119 24.4287 51.9658C25.0269 52.0584 25.638 52.0205 26.2201 51.8547C26.8023 51.6889 27.3417 51.3992 27.8014 51.0054C28.2611 50.6116 28.6302 50.1231 28.8834 49.5733C29.1365 49.0235 29.2678 48.4255 29.2682 47.8202V46.3038L27.9792 46.3437Z" fill="#3B3F4D"/>
<path d="M23.457 47.8201C23.4569 48.0325 23.4986 48.2428 23.5797 48.439C23.6609 48.6352 23.7799 48.8135 23.93 48.9637C24.0801 49.1139 24.2583 49.2331 24.4545 49.3144C24.6506 49.3957 24.8609 49.4375 25.0732 49.4375C25.2856 49.4375 25.4958 49.3957 25.692 49.3144C25.8882 49.2331 26.0664 49.1139 26.2165 48.9637C26.3666 48.8135 26.4856 48.6352 26.5667 48.439C26.6479 48.2428 26.6896 48.0325 26.6894 47.8201V46.693H23.457V47.8201Z" fill="white"/>
<path d="M42.5514 47.1257L17.9465 47.4457C16.5063 44.972 18.617 39.9287 22.1921 37.8626C24.0703 36.7772 25.988 36.7243 27.0665 36.7882H33.6531C32.2782 38.8815 32.4215 41.5527 33.9198 43.2682C35.1286 44.6522 37.0763 45.2515 38.8168 44.8682C42.9894 43.9493 42.7288 39.1244 42.0387 35.865C41.9867 35.6195 41.102 32.7937 40.7318 31.7104L43.6437 32.5249C44.1076 34.0762 44.6113 35.6647 45.155 37.2901C45.7384 39.0289 46.3345 40.7067 46.9434 42.3236C45.4794 43.9243 44.0154 45.525 42.5514 47.1257Z" fill="#FFE966"/>
<path d="M51.4669 44.9495C51.9003 45.4036 52.2262 45.9493 52.4206 46.5462C52.6151 47.1431 52.6731 47.776 52.5904 48.3983C52.5077 49.0206 52.2864 49.6164 51.9428 50.1418C51.5993 50.6672 51.1422 51.1087 50.6052 51.434C50.0683 51.7592 49.4652 51.9598 48.8405 52.021C48.2157 52.0822 47.5852 52.0024 46.9953 51.7875C46.4055 51.5726 45.8714 51.228 45.4325 50.7793C44.9935 50.3305 44.6608 49.789 44.459 49.1945" fill="#4A4F60"/>
<path d="M51.4669 44.9495L50.6015 45.4737C51.0027 46.058 51.2493 46.7346 51.3181 47.4401C51.3869 48.1456 51.2758 48.857 50.9951 49.5079C50.7144 50.1588 50.2733 50.7279 49.7129 51.1621C49.1526 51.5963 48.4914 51.8813 47.791 51.9906C48.6569 52.1247 49.543 51.9843 50.325 51.589C51.107 51.1937 51.7456 50.5635 52.1511 49.7867C52.5566 49.01 52.7086 48.1258 52.5859 47.2582C52.4632 46.3906 52.0719 45.5833 51.4669 44.9495Z" fill="#3B3F4D"/>
<path d="M49.207 46.4275C49.4565 46.5638 49.6656 46.7636 49.8132 47.0066C49.9608 47.2496 50.0417 47.5272 50.0478 47.8115C50.0538 48.0957 49.9848 48.3765 49.8476 48.6256C49.7105 48.8746 49.5101 49.0831 49.2666 49.2299C49.0232 49.3768 48.7453 49.4568 48.461 49.462C48.1768 49.4672 47.8962 49.3972 47.6475 49.2593C47.3989 49.1214 47.1911 48.9203 47.045 48.6764C46.8989 48.4325 46.8197 48.1544 46.8154 47.8701C46.8288 47.5485 46.9323 47.2371 47.1142 46.9715C47.2961 46.7059 47.5489 46.4967 47.844 46.368C48.502 46.0978 49.1061 46.3786 49.207 46.4275Z" fill="white"/>
<path d="M17.9463 47.4458C18.9329 42.877 23.1975 40.2995 26.666 41.1882C29.1791 41.832 31.1622 44.2669 31.6248 47.2695L17.9463 47.4458Z" fill="#FFE236"/>
<path d="M45.1553 42.7198L45.4108 42.5677C46.5856 41.8687 47.99 41.6649 49.3151 42.0013C50.6401 42.3377 51.7773 43.1867 52.4764 44.3615L52.4764 44.3615L43.3615 49.7854L43.3615 49.7854C42.6624 48.6106 42.4586 47.2061 42.795 45.8811C43.1314 44.556 43.9804 43.4189 45.1552 42.7198L45.1553 42.7198Z" fill="#FFE236"/>
<path d="M32.0332 24.2247V31.7933C31.0472 31.7676 30.0826 31.4999 29.2245 31.0136C28.3663 30.5274 27.6409 29.8376 27.1121 29.005C26.5834 28.1723 26.2675 27.2225 26.1923 26.239C26.1171 25.2555 26.2849 24.2687 26.681 23.3654H31.1738C31.2867 23.3653 31.3984 23.3875 31.5027 23.4307C31.607 23.4739 31.7017 23.5372 31.7815 23.617C31.8613 23.6968 31.9246 23.7915 31.9678 23.8958C32.011 24.0001 32.0332 24.1119 32.0332 24.2247Z" fill="#FF4E4E"/>
<path d="M32.1904 30.5062C34.8008 30.5062 36.917 28.3898 36.917 25.779C36.917 23.1683 34.8008 21.0519 32.1904 21.0519C29.58 21.0519 27.4639 23.1683 27.4639 25.779C27.4639 28.3898 29.58 30.5062 32.1904 30.5062Z" fill="#63EA86"/>
<path d="M42.2881 28.7357H44.5539C44.6451 28.7357 44.7325 28.7719 44.797 28.8364C44.8614 28.9009 44.8976 28.9883 44.8976 29.0795V32.1811C44.8976 32.2723 44.8614 32.3597 44.797 32.4242C44.7325 32.4887 44.6451 32.5249 44.5539 32.5249H42.2881C41.7857 32.5249 41.3038 32.3253 40.9485 31.97C40.5932 31.6147 40.3936 31.1328 40.3936 30.6303C40.3936 30.1278 40.5932 29.6459 40.9485 29.2906C41.3038 28.9353 41.7857 28.7357 42.2881 28.7357Z" fill="#FFE236"/>
<path d="M44.5537 28.7357H43.2646C43.3558 28.7357 43.4433 28.7719 43.5077 28.8364C43.5722 28.9009 43.6084 28.9883 43.6084 29.0795V32.1811C43.6084 32.2263 43.5995 32.271 43.5822 32.3127C43.565 32.3544 43.5396 32.3923 43.5077 32.4242C43.4758 32.4561 43.4379 32.4814 43.3962 32.4987C43.3545 32.516 43.3098 32.5249 43.2646 32.5249H44.5537C44.5989 32.5249 44.6436 32.516 44.6853 32.4987C44.727 32.4814 44.7649 32.4561 44.7968 32.4242C44.8287 32.3923 44.854 32.3544 44.8713 32.3127C44.8886 32.271 44.8975 32.2263 44.8975 32.1811V29.0795C44.8975 28.9883 44.8612 28.9009 44.7968 28.8364C44.7323 28.7719 44.6449 28.7357 44.5537 28.7357Z" fill="#FFDF1F"/>
<path d="M12.6615 30.3831H17.5513C17.7223 30.3831 17.8862 30.3152 18.0071 30.1943C18.128 30.0734 18.1959 29.9095 18.1959 29.7385C18.1959 29.5676 18.128 29.4037 18.0071 29.2828C17.8862 29.1619 17.7223 29.094 17.5513 29.094H12.6615C12.4906 29.094 12.3267 29.1619 12.2058 29.2828C12.0849 29.4037 12.017 29.5676 12.017 29.7385C12.017 29.9095 12.0849 30.0734 12.2058 30.1943C12.3267 30.3152 12.4906 30.3831 12.6615 30.3831ZM11.3725 32.9612H17.5513C17.7223 32.9612 17.8862 32.8933 18.0071 32.7724C18.128 32.6515 18.1959 32.4876 18.1959 32.3167C18.1959 32.1457 18.128 31.9818 18.0071 31.8609C17.8862 31.74 17.7223 31.6721 17.5513 31.6721H11.3725C11.2015 31.6721 11.0376 31.74 10.9167 31.8609C10.7959 31.9818 10.728 32.1457 10.728 32.3167C10.728 32.4876 10.7959 32.6515 10.9167 32.7724C11.0376 32.8933 11.2015 32.9612 11.3725 32.9612ZM13.9506 27.8049H17.5513C17.7223 27.8049 17.8862 27.737 18.0071 27.6162C18.128 27.4953 18.1959 27.3314 18.1959 27.1604C18.1959 26.9895 18.128 26.8255 18.0071 26.7047C17.8862 26.5838 17.7223 26.5159 17.5513 26.5159H13.9506C13.7797 26.5159 13.6157 26.5838 13.4949 26.7047C13.374 26.8255 13.3061 26.9895 13.3061 27.1604C13.3061 27.3314 13.374 27.4953 13.4949 27.6162C13.6157 27.737 13.7797 27.8049 13.9506 27.8049ZM53.3555 51.4308H51.682C52.486 50.7061 53.0215 49.731 53.2018 48.6638C53.4094 47.4329 53.1359 46.1694 52.438 45.1345L52.8062 44.9154C52.8789 44.8721 52.9424 44.8149 52.9931 44.7471C53.0437 44.6793 53.0805 44.6022 53.1013 44.5201C53.1222 44.4381 53.1266 44.3528 53.1145 44.269C53.1023 44.1852 53.0738 44.1047 53.0305 44.0319C52.4407 43.0424 51.57 42.2505 50.5291 41.757C49.4882 41.2634 48.3241 41.0905 47.1847 41.2602C46.6355 39.9527 46.0703 38.0901 45.5228 36.2849C45.2035 35.2317 44.8757 34.1513 44.5478 33.1694H44.8977C44.9823 33.1694 45.0661 33.1527 45.1443 33.1203C45.2225 33.0879 45.2936 33.0404 45.3534 32.9806C45.4133 32.9207 45.4608 32.8497 45.4932 32.7715C45.5255 32.6933 45.5422 32.6095 45.5422 32.5248V28.7357C45.5422 28.6511 45.5255 28.5672 45.4932 28.489C45.4608 28.4108 45.4133 28.3398 45.3534 28.2799C45.2936 28.2201 45.2225 28.1726 45.1443 28.1402C45.0661 28.1078 44.9823 28.0912 44.8977 28.0912H42.2882C41.7272 28.0919 41.1821 28.2781 40.738 28.6207C40.2938 28.9634 39.9753 29.4433 39.8322 29.9857H37.3661C37.1951 29.9857 37.0312 30.0536 36.9103 30.1745C36.7894 30.2954 36.7215 30.4593 36.7215 30.6303C36.7215 30.8012 36.7894 30.9651 36.9103 31.086C37.0312 31.2069 37.1951 31.2748 37.3661 31.2748H39.8322C39.9278 31.6376 40.1027 31.9746 40.3444 32.2615C40.35 32.2994 40.359 32.3366 40.3712 32.3729C40.7303 33.4236 41.3624 35.7841 41.4078 35.9985C42.1128 39.3281 42.2115 43.4605 38.6778 44.2387C37.9058 44.4046 37.1038 44.3629 36.3532 44.1179C35.6026 43.8729 34.9303 43.4334 34.4048 42.8442C33.0752 41.3218 32.9869 38.9788 34.1895 37.1451C34.5214 36.9336 34.7758 36.6202 34.9143 36.2519C35.0528 35.8835 35.0681 35.4802 34.9578 35.1024C34.8475 34.7246 34.6176 34.3929 34.3026 34.1569C33.9876 33.921 33.6046 33.7937 33.2111 33.794H32.6608C32.6717 33.7228 32.6775 33.651 32.678 33.579V31.1277C33.578 31.0463 34.4429 30.7393 35.1927 30.2349C35.9425 29.7305 36.5529 29.045 36.9674 28.2421C37.3819 27.4391 37.5871 26.5445 37.564 25.6411C37.5409 24.7378 37.2902 23.8548 36.8353 23.0741C36.3803 22.2933 35.7357 21.64 34.9611 21.1746C34.1865 20.7091 33.307 20.4467 32.4041 20.4114C31.5011 20.3762 30.6038 20.5694 29.7954 20.973C28.9869 21.3767 28.2933 21.9778 27.7789 22.7208H20.9888C20.5901 22.7212 20.2079 22.8798 19.9259 23.1618C19.644 23.4437 19.4854 23.826 19.4849 24.2247V33.579C19.4854 33.9777 19.644 34.36 19.9259 34.6419C20.2079 34.9239 20.5901 35.0824 20.9888 35.0829H21.9927C21.8911 35.4146 21.8869 35.7684 21.9805 36.1024C22.0742 36.4364 22.2618 36.7365 22.521 36.967C22.2984 37.0705 22.0806 37.1824 21.8693 37.3046C19.6607 38.5809 17.7921 41.0668 17.1087 43.6379C16.6832 45.239 16.7777 46.6935 17.3729 47.7398C17.3739 47.7416 17.3748 47.7433 17.3758 47.745C17.3804 47.7532 17.3845 47.7618 17.3892 47.7699C17.3913 47.7736 17.3941 47.7769 17.3964 47.7806C17.4065 47.7973 17.4175 47.8135 17.4291 47.8292C17.4326 47.8338 17.4357 47.8388 17.4392 47.8433C17.4545 47.8626 17.4708 47.8811 17.4882 47.8985C17.493 47.9035 17.4981 47.908 17.5031 47.9127C17.5171 47.926 17.5317 47.9387 17.5469 47.9508C17.5521 47.9549 17.5573 47.9591 17.5627 47.9631C17.5821 47.9776 17.6022 47.991 17.6231 48.0032L17.6254 48.0047C17.6481 48.0176 17.6715 48.0291 17.6956 48.0391C17.7005 48.0412 17.7056 48.0429 17.7106 48.0449C17.7292 48.0522 17.7482 48.0586 17.7677 48.0643C17.775 48.0664 17.7824 48.0684 17.7899 48.0702C17.7968 48.072 17.8034 48.0743 17.8104 48.0758C17.8225 48.0784 17.8346 48.0797 17.8467 48.0816C17.8535 48.0827 17.8602 48.0841 17.867 48.0849C17.8936 48.0884 17.9203 48.0903 17.9471 48.0905C17.9486 48.0905 17.9501 48.0901 17.9516 48.0901L17.9545 48.0901L20.2396 48.0603C20.2714 48.7013 20.4307 49.3295 20.7081 49.9082C20.9855 50.4869 21.3754 51.0045 21.8551 51.4308H10.6445C10.4736 51.4308 10.3097 51.4987 10.1888 51.6196C10.0679 51.7404 10 51.9044 10 52.0753C10 52.2463 10.0679 52.4102 10.1888 52.5311C10.3097 52.6519 10.4736 52.7199 10.6445 52.7199H53.3555C53.5264 52.7199 53.6903 52.6519 53.8112 52.5311C53.9321 52.4102 54 52.2463 54 52.0753C54 51.9044 53.9321 51.7404 53.8112 51.6196C53.6903 51.4987 53.5264 51.4308 53.3555 51.4308ZM48.0394 42.4883C48.7128 42.4877 49.3777 42.6375 49.9857 42.9269C50.5938 43.2162 51.1294 43.6378 51.5536 44.1607L51.2447 44.3445C51.1709 44.3718 51.1028 44.4123 51.0437 44.4642L43.6255 48.8784C43.2112 47.8765 43.1711 46.7591 43.5126 45.7301C43.854 44.7011 44.5541 43.8292 45.4851 43.2737L45.7406 43.1216C46.4356 42.7068 47.23 42.488 48.0394 42.4883ZM49.3895 48.0102C49.3518 48.2302 49.2396 48.4304 49.0717 48.5774C48.9037 48.7243 48.6903 48.8089 48.4673 48.8171C48.2443 48.8252 48.0253 48.7563 47.8471 48.622C47.669 48.4877 47.5424 48.2961 47.4888 48.0795L49.0873 47.1283C49.2075 47.2383 49.2982 47.3766 49.351 47.5307C49.4038 47.6848 49.417 47.8497 49.3895 48.0102H49.3895ZM41.0381 30.6303C41.0385 30.2988 41.1703 29.9811 41.4047 29.7468C41.639 29.5124 41.9567 29.3806 42.2882 29.3802H44.2531V31.8803H42.2882C41.9567 31.8799 41.639 31.7481 41.4047 31.5138C41.1703 31.2794 41.0385 30.9617 41.0381 30.6303ZM33.2111 35.0831C33.3512 35.083 33.4857 35.1384 33.5851 35.2371C33.6845 35.3359 33.7408 35.47 33.7416 35.6101C33.7425 35.7502 33.6879 35.8849 33.5897 35.9849C33.4916 36.0849 33.3578 36.142 33.2177 36.1436H27.0849C26.6845 36.1208 26.2831 36.1209 25.8827 36.144H23.7328C23.6631 36.1441 23.594 36.1304 23.5296 36.1038C23.4652 36.0772 23.4066 36.0381 23.3573 35.9889C23.3079 35.9396 23.2688 35.8811 23.2421 35.8167C23.2154 35.7523 23.2017 35.6832 23.2017 35.6135C23.2017 35.5438 23.2154 35.4748 23.2421 35.4104C23.2688 35.346 23.3079 35.2875 23.3573 35.2382C23.4066 35.1889 23.4652 35.1499 23.5296 35.1233C23.594 35.0966 23.6631 35.083 23.7328 35.0831H33.2111ZM32.1909 21.6964C32.9984 21.6963 33.7878 21.9356 34.4593 22.3842C35.1307 22.8327 35.6541 23.4703 35.9632 24.2163C36.2723 24.9623 36.3532 25.7832 36.1958 26.5752C36.0383 27.3672 35.6495 28.0947 35.0786 28.6657C34.5076 29.2367 33.7802 29.6256 32.9882 29.7832C32.1962 29.9408 31.3753 29.86 30.6293 29.551C29.8832 29.242 29.2456 28.7187 28.797 28.0473C28.3483 27.3759 28.1089 26.5866 28.1089 25.7791C28.11 24.6967 28.5404 23.659 29.3057 22.8937C30.071 22.1283 31.1086 21.6977 32.1909 21.6964V21.6964ZM20.9888 33.7938C20.9319 33.7938 20.8773 33.7711 20.837 33.7308C20.7967 33.6906 20.7741 33.636 20.774 33.579V24.2247C20.7741 24.1677 20.7967 24.1131 20.837 24.0728C20.8773 24.0326 20.9319 24.0099 20.9888 24.0098H27.1205C26.86 24.7552 26.767 25.5488 26.8483 26.3341C26.9296 27.1195 27.183 27.8772 27.5906 28.5534C27.9983 29.2296 28.55 29.8076 29.2065 30.2461C29.8631 30.6847 30.6083 30.973 31.389 31.0906V33.579C31.3889 33.636 31.3663 33.6906 31.326 33.7308C31.2857 33.7711 31.2311 33.7938 31.1742 33.7938H20.9888ZM18.3545 43.9691C18.9544 41.7121 20.5872 39.5342 22.5143 38.4206C23.5571 37.8319 24.7225 37.4938 25.9185 37.433H32.5758C31.6599 39.5592 31.9618 42.0065 33.434 43.6921C34.1126 44.4542 34.9811 45.0227 35.9509 45.3399C36.9208 45.657 37.9573 45.7114 38.9551 45.4976C42.5174 44.7131 43.8364 41.2448 42.6689 35.7315C42.625 35.5241 42.2883 34.2578 41.9621 33.1477C42.0702 33.1619 42.1791 33.1691 42.2882 33.1694H43.1867C43.5541 34.2349 43.9271 35.4647 44.2892 36.6589C44.8245 38.424 45.3765 40.2431 45.9296 41.5987C45.6362 41.714 45.3526 41.8529 45.0815 42.0138L44.8259 42.1659C44.1701 42.5537 43.5978 43.0677 43.142 43.6782C42.6862 44.2887 42.356 44.9835 42.1706 45.7225C42.1071 45.9742 42.0603 46.2299 42.0306 46.4878L32.1583 46.6162C31.5072 43.6247 29.4185 41.228 26.8261 40.5637C25.0605 40.1114 23.0546 40.466 21.3226 41.5366C19.982 42.3755 18.8914 43.5592 18.1649 44.9638C18.2032 44.628 18.2666 44.2955 18.3545 43.9691ZM18.7908 46.79C19.3568 45.0502 20.4966 43.5627 22.0004 42.6331C23.436 41.7458 25.0783 41.4466 26.5061 41.8125C28.5588 42.3384 30.2337 44.2316 30.8389 46.6333L18.7908 46.79ZM26.0296 47.985C25.9912 48.2086 25.8758 48.4118 25.7033 48.5591C25.5308 48.7065 25.3121 48.7888 25.0852 48.7917C24.8584 48.7947 24.6377 48.7181 24.4614 48.5753C24.2851 48.4324 24.1644 48.2324 24.1202 48.0099L26.0296 47.985ZM25.073 51.3706C24.1704 51.3695 23.3021 51.025 22.6442 50.4071C21.9863 49.7893 21.588 48.9443 21.5303 48.0435L22.8221 48.0267C22.874 48.5932 23.1376 49.1193 23.5602 49.5C23.9829 49.8807 24.5336 50.088 25.1023 50.0806C25.6711 50.0732 26.2162 49.8517 26.6288 49.4601C27.0414 49.0685 27.2912 48.5358 27.3284 47.9681L28.6201 47.9513C28.5853 48.8692 28.1965 49.7379 27.5352 50.3753C26.8739 51.0128 25.9915 51.3695 25.073 51.3706ZM28.2909 51.4308C28.7862 50.9904 29.1856 50.4527 29.4641 49.8511C29.7426 49.2496 29.8943 48.5972 29.9096 47.9346L31.5859 47.9128C31.6152 47.9144 31.6446 47.914 31.6738 47.9116L42.0246 47.777C42.1145 48.6036 42.3816 49.401 42.8078 50.115C42.8511 50.1877 42.9083 50.2512 42.9761 50.3018C43.0439 50.3525 43.121 50.3893 43.2031 50.4101C43.2851 50.4309 43.3705 50.4354 43.4542 50.4232C43.538 50.4111 43.6185 50.3826 43.6913 50.3393L44.1361 50.0746C44.4008 50.5851 44.7543 51.0443 45.1802 51.4308H28.2909ZM50.4821 50.7447C50.0628 51.0413 49.5842 51.2433 49.0792 51.337C48.5743 51.4306 48.055 51.4136 47.5573 51.2871C47.0595 51.1606 46.5952 50.9276 46.1962 50.6042C45.7972 50.2808 45.4732 49.8747 45.2464 49.4139L46.3613 48.7505C46.4895 49.0444 46.6788 49.3076 46.9165 49.5227C47.1543 49.7378 47.4351 49.8999 47.7404 49.9981C48.0456 50.0963 48.3682 50.1285 48.6868 50.0924C49.0054 50.0564 49.3127 49.9529 49.5882 49.789C49.8638 49.625 50.1013 49.4043 50.285 49.1414C50.4686 48.8786 50.5943 48.5797 50.6535 48.2646C50.7128 47.9495 50.7043 47.6254 50.6287 47.3138C50.553 47.0022 50.4119 46.7103 50.2148 46.4574L51.3289 45.7945C51.5985 46.1751 51.7905 46.605 51.8939 47.0598C51.9973 47.5146 52.01 47.9854 51.9314 48.4451C51.8527 48.9048 51.6842 49.3445 51.4356 49.7391C51.1869 50.1337 50.8629 50.4754 50.4821 50.7447V50.7447ZM32.1909 26.4236H34.0496C34.2205 26.4236 34.3845 26.3557 34.5053 26.2348C34.6262 26.114 34.6941 25.95 34.6941 25.7791C34.6941 25.6081 34.6262 25.4442 34.5053 25.3233C34.3845 25.2024 34.2205 25.1345 34.0496 25.1345H32.8355V23.3423C32.8355 23.1713 32.7676 23.0074 32.6467 22.8865C32.5258 22.7657 32.3619 22.6977 32.1909 22.6977C32.02 22.6977 31.856 22.7657 31.7352 22.8865C31.6143 23.0074 31.5464 23.1713 31.5464 23.3423V25.7791C31.5464 25.95 31.6143 26.114 31.7352 26.2348C31.856 26.3557 32.02 26.4236 32.1909 26.4236Z" fill="#272A33"/>
<defs>
<linearGradient id="paint0_linear_593_17130" x1="31.5" y1="0" x2="31.5" y2="63" gradientUnits="userSpaceOnUse">
<stop stop-color="#ACAAC3" stop-opacity="0.4"/>
<stop offset="1" stop-color="#F0F4FD" stop-opacity="0.2"/>
</linearGradient>
</defs>
</svg>
