<svg width="63" height="63" viewBox="0 0 63 63" fill="none" xmlns="http://www.w3.org/2000/svg">
<rect width="63" height="63" rx="10" fill="url(#paint0_linear_593_17132)"/>
<g clip-path="url(#clip0_593_17132)">
<path d="M41.2471 35.5104C41.7279 35.23 42.2768 35.0825 42.8359 35.0834H47.2891C48.1158 35.0834 48.9087 35.406 49.4932 35.9804C50.0778 36.5547 50.4062 37.3337 50.4062 38.1459V43.25C50.4062 43.5595 50.2811 43.8562 50.0584 44.075C49.8357 44.2938 49.5337 44.4167 49.2188 44.4167H40.9062" fill="#82C8EC"/>
<path d="M23.0938 44.4167H14.7812C14.4663 44.4167 14.1643 44.2938 13.9416 44.075C13.7189 43.8562 13.5938 43.5595 13.5938 43.25V38.1459C13.5938 37.3337 13.9222 36.5547 14.5068 35.9804C15.0913 35.406 15.8842 35.0834 16.7109 35.0834H21.1641C21.7246 35.0825 22.2749 35.2309 22.7565 35.5127" fill="#FBDE53"/>
<path d="M34.2753 31C36.2875 31 38.2173 31.7853 39.6401 33.1832C41.0629 34.581 41.8623 36.477 41.8623 38.4538V41.4347C41.8623 42.2253 41.5427 42.9836 40.9737 43.5428C40.4047 44.102 39.633 44.4164 38.8282 44.4167H25.172C24.367 44.4167 23.5949 44.1025 23.0257 43.5433C22.4565 42.984 22.1367 42.2255 22.1367 41.4347V38.4538C22.1367 37.4749 22.333 36.5055 22.7144 35.6011C23.0957 34.6967 23.6547 33.8749 24.3593 33.1828C25.0639 32.4906 25.9005 31.9416 26.8211 31.5671C27.7417 31.1925 28.7284 30.9998 29.7248 31" fill="#ED456A"/>
<path d="M34.2765 26.8513V30.2545C34.2765 30.5482 34.2176 30.839 34.1032 31.1104C33.9888 31.3817 33.8211 31.6283 33.6098 31.8359C33.3984 32.0436 33.1474 32.2083 32.8712 32.3207C32.595 32.4331 32.299 32.491 32.0001 32.491C31.7011 32.491 31.4051 32.4331 31.1289 32.3207C30.8527 32.2083 30.6018 32.0436 30.3904 31.8359C30.179 31.6283 30.0113 31.3817 29.8969 31.1104C29.7825 30.839 29.7236 30.5482 29.7236 30.2545V26.8513H34.2765Z" fill="#FFD9AA"/>
<path d="M32 28.018C34.9329 28.018 37.3105 25.6822 37.3105 22.8007C37.3105 19.9193 34.9329 17.5834 32 17.5834C29.067 17.5834 26.6895 19.9193 26.6895 22.8007C26.6895 25.6822 29.067 28.018 32 28.018Z" fill="#57565D"/>
<path d="M37.1359 22.2185L31.9928 20.7835C31.4854 20.6418 30.9443 20.6701 30.455 20.864L27.0362 22.2185L26.7298 22.4028C26.7191 22.537 26.6895 22.6642 26.6895 22.8007C26.6895 23.4858 26.8268 24.1642 27.0937 24.7972C27.3606 25.4302 27.7517 26.0054 28.2449 26.4899C28.738 26.9743 29.3234 27.3587 29.9677 27.6208C30.612 27.883 31.3026 28.018 32 28.018C32.6973 28.018 33.3879 27.883 34.0322 27.6208C34.6765 27.3587 35.2619 26.9743 35.755 26.4899C36.2482 26.0054 36.6393 25.4302 36.9062 24.7972C37.1731 24.1642 37.3105 23.4858 37.3105 22.8007C37.3016 22.6233 37.2834 22.4465 37.2558 22.271L37.1359 22.2185ZM46.8437 31.5833V34.5C46.8437 34.9641 46.656 35.4092 46.322 35.7374C45.9879 36.0656 45.5349 36.25 45.0625 36.25C44.59 36.25 44.137 36.0656 43.8029 35.7374C43.4689 35.4092 43.2812 34.9641 43.2812 34.5V31.5833H46.8437Z" fill="#FFD9AA"/>
<path d="M45.0625 32.75C47.3579 32.75 49.2188 30.9219 49.2188 28.6667C49.2188 26.4115 47.3579 24.5834 45.0625 24.5834C42.7671 24.5834 40.9062 26.4115 40.9062 28.6667C40.9062 30.9219 42.7671 32.75 45.0625 32.75Z" fill="#57565D"/>
<path d="M48.7938 28.13L45.2313 27.1348C44.7238 26.9931 44.1827 27.0214 43.6934 27.2153L41.2508 28.1836L40.9479 28.3003C40.9373 28.417 40.9111 28.5406 40.9111 28.6655C40.9111 29.7484 41.349 30.7871 42.1285 31.5528C42.9079 32.3186 43.9651 32.7488 45.0674 32.7488C46.1697 32.7488 47.2268 32.3186 48.0063 31.5528C48.7857 30.7871 49.2236 29.7484 49.2236 28.6655C49.2236 28.5301 49.1963 28.403 49.1833 28.2711L48.7938 28.13Z" fill="#FFD9AA"/>
<path d="M18.9375 32.75C21.2329 32.75 23.0938 30.9219 23.0938 28.6667C23.0938 26.4115 21.2329 24.5834 18.9375 24.5834C16.6421 24.5834 14.7812 26.4115 14.7812 28.6667C14.7812 30.9219 16.6421 32.75 18.9375 32.75Z" fill="#57565D"/>
<path d="M19.5312 27.605C18.0393 28.2533 16.4232 28.5796 14.7919 28.5616C14.7919 28.5978 14.7812 28.6305 14.7812 28.6666C14.7813 29.7496 15.2191 30.7882 15.9986 31.554C16.778 32.3198 17.8352 32.75 18.9375 32.75C20.0398 32.75 21.097 32.3198 21.8764 31.554C22.6559 30.7882 23.0938 29.7496 23.0938 28.6666C23.0938 28.6001 23.0771 28.5383 23.0736 28.4718C21.8484 28.4007 20.6473 28.1068 19.5312 27.605Z" fill="#FFD9AA"/>
<path d="M15.1375 26.45C14.8444 26.231 14.6063 25.9488 14.4416 25.6252C14.2769 25.3016 14.1899 24.9451 14.1875 24.5833C14.1944 24.0203 14.4082 23.4788 14.7896 23.0585C15.1709 22.6383 15.6941 22.3677 16.2626 22.2966C16.8311 22.2256 17.4065 22.3588 17.8829 22.6719C18.3592 22.9849 18.7042 23.4566 18.8544 24" fill="#57565D"/>
<path d="M20.7188 31.5834V34.5C20.7188 34.9642 20.5311 35.4093 20.197 35.7375C19.863 36.0657 19.4099 36.25 18.9375 36.25C18.4651 36.25 18.012 36.0657 17.678 35.7375C17.3439 35.4093 17.1562 34.9642 17.1562 34.5V31.5834H20.7188Z" fill="#FFD9AA"/>
<path d="M47.4375 34.5152V32.75C47.4347 32.73 47.4307 32.7101 47.4256 32.6905C48.2667 32.2191 48.9403 31.5054 49.3552 30.6458C49.7702 29.7862 49.9065 28.8222 49.7457 27.8841C49.585 26.9459 49.135 26.0788 48.4565 25.4001C47.778 24.7213 46.9038 24.2635 45.9519 24.0887C45.8634 24.0332 45.7612 24.0026 45.6562 24H45.3475C45.3153 24.0035 45.2836 24.0097 45.2525 24.0187C45.1884 24.0187 45.1278 24 45.0625 24C44.0171 23.9968 43.0001 24.3336 42.1699 24.9578C41.3398 25.5821 40.7433 26.4587 40.4735 27.4509C40.2037 28.4432 40.2758 29.4952 40.6784 30.443C41.081 31.3908 41.7916 32.1811 42.6994 32.6905C42.6943 32.7101 42.6903 32.73 42.6875 32.75V34.5V34.5198C42.2919 34.5396 41.9021 34.6219 41.5332 34.7637C40.8881 33.5424 39.9348 32.5041 38.7644 31.7483C37.594 30.9925 36.2458 30.5445 34.8488 30.447C34.8488 30.3828 34.8678 30.3222 34.8678 30.2568V28.018C34.8648 27.9626 34.8536 27.908 34.8346 27.8558C35.9845 27.237 36.892 26.2598 37.4141 25.0782C37.9362 23.8967 38.0432 22.578 37.7181 21.3301C37.393 20.0822 36.6545 18.9762 35.6188 18.1863C34.5831 17.3964 33.3093 16.9677 31.9982 16.9677C30.6871 16.9677 29.4133 17.3964 28.3776 18.1863C27.342 18.9762 26.6034 20.0822 26.2783 21.3301C25.9533 22.578 26.0602 23.8967 26.5823 25.0782C27.1044 26.2598 28.012 27.237 29.1619 27.8558C29.1428 27.908 29.1316 27.9626 29.1286 28.018V30.2545C29.1286 30.3198 29.1441 30.3805 29.1476 30.4447C27.7506 30.5421 26.4024 30.9902 25.232 31.746C24.0617 32.5018 23.1083 33.54 22.4632 34.7613C22.0953 34.6207 21.7068 34.5392 21.3125 34.5198V34.5V32.75C21.3097 32.73 21.3057 32.7101 21.3006 32.6905C22.0233 32.2851 22.6245 31.6996 23.0436 30.9932C23.4626 30.2868 23.6847 29.4843 23.6875 28.6667C23.6875 28.6305 23.6768 28.5955 23.6768 28.5593C23.6768 28.5512 23.6839 28.5442 23.6839 28.536C23.6919 28.4488 23.6793 28.361 23.6471 28.2793C23.5551 27.2041 23.0848 26.1939 22.317 25.4223C21.5492 24.6508 20.5319 24.166 19.4398 24.0513C19.4476 23.9863 19.444 23.9204 19.4291 23.8565C19.3163 23.4129 19.0987 23.0016 18.794 22.656C18.4892 22.3104 18.1059 22.0402 17.675 21.8673C17.2442 21.6944 16.7779 21.6236 16.314 21.6608C15.8501 21.6979 15.4017 21.8419 15.005 22.081C14.6083 22.3202 14.2746 22.6478 14.0308 23.0373C13.787 23.4268 13.6401 23.8673 13.6018 24.323C13.5636 24.7787 13.6352 25.2368 13.8108 25.6603C13.9864 26.0838 14.2611 26.4606 14.6126 26.7603C14.3648 27.3047 14.2265 27.891 14.2053 28.487C14.1965 28.5183 14.1906 28.5503 14.1875 28.5827V28.6013C14.1875 28.6235 14.1804 28.6445 14.1804 28.6667C14.1832 29.4843 14.4053 30.2868 14.8243 30.9932C15.2434 31.6996 15.8445 32.2851 16.5673 32.6905C16.5646 32.7102 16.563 32.7301 16.5625 32.75V34.5152C15.6066 34.5519 14.7022 34.9502 14.0383 35.6268C13.3743 36.3034 13.0023 37.206 13 38.1458V43.25C13 43.7141 13.1877 44.1592 13.5217 44.4874C13.8558 44.8156 14.3088 45 14.7812 45H23.0938C23.2088 44.9995 23.3213 44.9661 23.4174 44.904C23.5135 44.8419 23.5892 44.7536 23.6353 44.65C24.1147 44.8772 24.6396 44.9967 25.1719 45H38.8281C39.3604 44.9967 39.8853 44.8772 40.3647 44.65C40.4108 44.7536 40.4865 44.8419 40.5826 44.904C40.6787 44.9661 40.7912 44.9995 40.9062 45H49.2188C49.6912 45 50.1442 44.8156 50.4783 44.4874C50.8123 44.1592 51 43.7141 51 43.25V38.1458C50.9977 37.206 50.6257 36.3034 49.9617 35.6268C49.2978 34.9502 48.3934 34.5519 47.4375 34.5152ZM45.0625 25.1667C45.7805 25.1686 46.4811 25.3836 47.0725 25.7836C47.664 26.1835 48.1186 26.7496 48.3768 27.4078L45.3891 26.5737C44.7549 26.3978 44.0793 26.433 43.4677 26.674L41.7672 27.3483C42.0338 26.7042 42.4896 26.1527 43.0765 25.7642C43.6634 25.3756 44.3548 25.1676 45.0625 25.1667ZM41.5 28.711L43.9071 27.7578C44.2748 27.6129 44.6809 27.5911 45.0625 27.696L48.625 28.6888C48.628 29.6171 48.2555 30.5085 47.5895 31.1669C46.9236 31.8254 46.0186 32.197 45.0738 32.1999C44.1289 32.2028 43.2216 31.8369 42.5514 31.1826C41.8812 30.5283 41.503 29.6392 41.5 28.711ZM46.25 33.1677V34.5C46.25 34.8094 46.1249 35.1062 45.9022 35.3249C45.6795 35.5437 45.3774 35.6667 45.0625 35.6667C44.7476 35.6667 44.4455 35.5437 44.2228 35.3249C44.0001 35.1062 43.875 34.8094 43.875 34.5V33.1677C44.6507 33.3886 45.4743 33.3886 46.25 33.1677ZM32 18.1667C33.0039 18.1705 33.9804 18.4895 34.7866 19.0772C35.5929 19.6649 36.1868 20.4905 36.4816 21.4333L32.1544 20.2223C31.5201 20.0472 30.8448 20.0825 30.233 20.3227L27.5291 21.3937C27.8304 20.4599 28.4257 19.6443 29.2292 19.0643C30.0327 18.4843 31.003 18.17 32 18.1667ZM27.2832 22.8007C27.2832 22.782 27.2832 22.7657 27.2832 22.747L30.6724 21.4042C31.0395 21.2602 31.4447 21.2389 31.8254 21.3435L36.7013 22.7038C36.7013 22.7365 36.7108 22.7668 36.7108 22.7995C36.7108 24.0285 36.2139 25.2072 35.3293 26.0762C34.4447 26.9453 33.245 27.4335 31.9941 27.4335C30.7431 27.4335 29.5434 26.9453 28.6588 26.0762C27.7743 25.2072 27.2773 24.0285 27.2773 22.7995L27.2832 22.8007ZM33.6827 28.333V30.2557C33.671 30.6863 33.4887 31.0956 33.1745 31.3961C32.8603 31.6967 32.4391 31.8649 32.0006 31.8649C31.5621 31.8649 31.1408 31.6967 30.8267 31.3961C30.5125 31.0956 30.3301 30.6863 30.3185 30.2557V28.333C31.4102 28.6916 32.591 28.6916 33.6827 28.333ZM18.9375 25.1667C19.7259 25.1694 20.4912 25.4291 21.1133 25.905C21.7354 26.3809 22.1793 27.046 22.3753 27.7963C21.4974 27.7093 20.641 27.4766 19.8424 27.108C19.7491 27.0519 19.6418 27.0222 19.5324 27.0222C19.4231 27.0222 19.3158 27.0519 19.2225 27.108C18.0349 27.6279 16.7543 27.9118 15.4546 27.9433C15.6233 27.1584 16.0614 26.4543 16.6954 25.9489C17.3294 25.4434 18.121 25.1673 18.9375 25.1667ZM14.7812 24.5833C14.7812 24.1192 14.9689 23.6741 15.303 23.3459C15.637 23.0177 16.0901 22.8333 16.5625 22.8333C16.9407 22.8351 17.3083 22.9561 17.6112 23.1785C17.9141 23.4009 18.1363 23.713 18.2452 24.0688C17.068 24.2409 16.0005 24.8434 15.2562 25.7558C14.9544 25.437 14.785 25.0187 14.7812 24.5833ZM15.4213 29.1123C16.8309 29.0663 18.2216 28.7797 19.5312 28.2653C20.4711 28.637 21.4584 28.8799 22.4656 28.9875C22.3893 29.8442 21.993 30.6428 21.353 31.2295C20.713 31.8162 19.8746 32.1494 18.9994 32.1649C18.1242 32.1804 17.2742 31.8772 16.6131 31.3135C15.952 30.7499 15.5266 29.9658 15.4189 29.1123H15.4213ZM20.125 33.1677V34.5C20.125 34.8094 19.9999 35.1062 19.7772 35.3249C19.5545 35.5437 19.2524 35.6667 18.9375 35.6667C18.6226 35.6667 18.3205 35.5437 18.0978 35.3249C17.8751 35.1062 17.75 34.8094 17.75 34.5V33.1677C18.137 33.2725 18.5361 33.3282 18.9375 33.3333C19.3389 33.3282 19.738 33.2725 20.125 33.1677ZM14.7812 43.8333C14.6238 43.8333 14.4728 43.7719 14.3614 43.6625C14.2501 43.5531 14.1875 43.4047 14.1875 43.25V38.1458C14.1881 37.4885 14.4542 36.8583 14.9273 36.3935C15.4004 35.9287 16.0419 35.6673 16.7109 35.6667H16.8926C17.1 36.0238 17.4005 36.3202 17.7632 36.5252C18.1259 36.7303 18.5377 36.8367 18.9562 36.8333C19.3746 36.83 19.7846 36.7171 20.1439 36.5063C20.5032 36.2955 20.7988 35.9944 21.0002 35.634C21.0529 35.6526 21.1081 35.6636 21.1641 35.6667C21.4503 35.6723 21.7334 35.7259 22.0013 35.8253C21.6996 36.6701 21.5446 37.5586 21.5429 38.4538V41.4347C21.5439 42.3239 21.8856 43.1803 22.5 43.8333H14.7812ZM41.2696 41.4347C41.269 42.0706 41.0116 42.6804 40.5538 43.1301C40.0961 43.5798 39.4755 43.8327 38.8281 43.8333H25.1719C24.5245 43.8327 23.9039 43.5798 23.4462 43.1301C22.9884 42.6804 22.731 42.0706 22.7304 41.4347V38.4538C22.7333 36.6729 23.4397 34.9626 24.7008 33.6832C25.9618 32.4038 27.6791 31.6551 29.4908 31.595C29.7332 32.042 30.0947 32.4159 30.5367 32.6766C30.9786 32.9373 31.4845 33.0751 32 33.0751C32.5155 33.0751 33.0214 32.9373 33.4633 32.6766C33.9053 32.4159 34.2668 32.042 34.5092 31.595C36.3209 31.6551 38.0382 32.4038 39.2992 33.6832C40.5603 34.9626 41.2667 36.6729 41.2696 38.4538V41.4347ZM49.8125 43.25C49.8125 43.4047 49.7499 43.5531 49.6386 43.6625C49.5272 43.7719 49.3762 43.8333 49.2188 43.8333H41.5C42.1161 43.181 42.4596 42.3246 42.4619 41.4347V38.4538C42.4601 37.5586 42.3052 36.6701 42.0035 35.8253C42.2698 35.7264 42.5513 35.6728 42.8359 35.6667H43.0176C43.225 36.0238 43.5255 36.3202 43.8882 36.5252C44.2509 36.7303 44.6627 36.8367 45.0812 36.8333C45.4996 36.83 45.9096 36.7171 46.2689 36.5063C46.6282 36.2955 46.9238 35.9944 47.1252 35.634C47.1779 35.6526 47.2331 35.6636 47.2891 35.6667C47.9581 35.6673 48.5996 35.9287 49.0727 36.3935C49.5458 36.8583 49.8119 37.4885 49.8125 38.1458V43.25Z" fill="black"/>
</g>
<defs>
<linearGradient id="paint0_linear_593_17132" x1="31.5" y1="0" x2="31.5" y2="63" gradientUnits="userSpaceOnUse">
<stop stop-color="#ACAAC3" stop-opacity="0.4"/>
<stop offset="1" stop-color="#F0F4FD" stop-opacity="0.2"/>
</linearGradient>
<clipPath id="clip0_593_17132">
<rect width="38" height="28" fill="white" transform="translate(13 17)"/>
</clipPath>
</defs>
</svg>
